<?xml version="1.0" encoding="iso-8859-1"?>
<!-- Generator: Adobe Illustrator 19.0.0, SVG Export Plug-In . SVG Version: 6.00 Build 0)  -->
<svg version="1.1" id="Layer_1" xmlns="http://www.w3.org/2000/svg" xmlns:xlink="http://www.w3.org/1999/xlink" x="0px" y="0px"
	viewBox="0 0 512 512" style="enable-background:new 0 0 512 512;" xml:space="preserve" fill="white">
<g>
	<g>
		<path d="M498.695,315.371H380.315v-27.939h15.44c43.86,0,79.542-35.682,79.542-79.542v-25.638c0-5.633-4.567-10.199-10.199-10.199
			h-25.639c-23.459,0-44.572,10.215-59.143,26.422v-59.178c10.48,9.337,24.251,15.012,39.188,15.012h18.042
			c5.632,0,10.199-4.566,10.199-10.199v-18.042c0-14.881-5.557-29.093-15.648-40.02c-3.125-3.384-6.599-6.36-10.345-8.893
			c3.745-2.532,7.219-5.509,10.345-8.893c10.091-10.928,15.648-25.141,15.648-40.022V10.199C447.746,4.566,443.178,0,437.546,0
			h-18.042c-20.2,0-38.269,10.248-48.938,26.051C359.847,10.27,341.721,0,321.678,0h-18.042c-5.632,0-10.199,4.566-10.199,10.199
			v18.042c0,20.257,10.205,38.279,25.978,48.925c-3.776,2.555-7.276,5.559-10.421,8.978c-10.033,10.912-15.558,25.09-15.558,39.923
			v18.042c0,5.633,4.567,10.199,10.199,10.199h18.042c14.512,0,27.895-5.268,38.239-14.066v58.231
			c-14.572-16.208-35.684-26.422-59.143-26.422h-25.638c-5.632,0-10.199,4.566-10.199,10.199v25.638
			c0,43.86,35.682,79.542,79.542,79.542h15.439v27.939H152.084v-27.939h15.439c43.86,0,79.542-35.682,79.542-79.542v-25.638
			c0-5.633-4.567-10.199-10.199-10.199h-25.638c-23.459,0-44.572,10.214-59.143,26.422v-58.756
			c10.42,9.086,24.001,14.591,38.713,14.591h18.042c5.632,0,10.199-4.566,10.199-10.199v-18.042c0-14.881-5.557-29.093-15.648-40.02
			c-3.125-3.384-6.599-6.36-10.344-8.893c3.745-2.532,7.219-5.509,10.344-8.893c10.091-10.926,15.648-25.139,15.648-40.02V10.199
			C219.039,4.566,214.471,0,208.839,0h-18.042c-20.2,0-38.269,10.248-48.938,26.051C131.141,10.27,113.014,0,92.971,0H74.929
			C69.297,0,64.73,4.566,64.73,10.199v18.042c0,20.257,10.205,38.279,25.978,48.925c-3.776,2.555-7.276,5.559-10.421,8.978
			c-10.033,10.912-15.558,25.09-15.558,39.923v18.042c0,5.633,4.567,10.199,10.199,10.199h18.042
			c14.735,0,28.306-5.428,38.714-14.471v58.636c-14.572-16.208-35.684-26.422-59.143-26.422H46.904
			c-5.632,0-10.199,4.566-10.199,10.199v25.638c0,43.86,35.682,79.542,79.542,79.542h15.44v27.939H13.306
			c-5.632,0-10.199,4.566-10.199,10.199v44.933c0,5.633,4.567,10.199,10.199,10.199h16.354l14.732,101.093
			C46.902,499.015,62.899,512,81.602,512h348.796c18.703,0,34.7-12.985,37.209-30.204l14.732-101.094h16.354
			c5.632,0,10.199-4.566,10.199-10.199v-44.933C508.894,319.937,504.328,315.371,498.695,315.371z M152.085,251.595
			c-0.001-32.612,26.531-59.143,59.143-59.143h15.439v15.439c0,32.612-26.532,59.143-59.143,59.143h-1.015l47.63-47.63
			c3.983-3.983,3.983-10.441,0-14.424c-3.984-3.983-10.44-3.983-14.425,0l-47.629,47.63V251.595z M439.459,192.452h15.44v15.439
			c0,32.612-26.532,59.143-59.143,59.143h-1.015l21.542-21.542c3.983-3.983,3.983-10.441,0-14.425
			c-3.984-3.983-10.44-3.983-14.425,0l-21.542,21.542v-1.015C380.315,218.983,406.847,192.452,439.459,192.452z M419.504,20.398
			h7.843v7.843c0,17.255-11.667,32.248-27.676,37.014c-3.166-7.815-9.377-14.079-17.158-17.309
			C387.297,31.869,402.208,20.398,419.504,20.398z M399.593,89.028c16.049,4.742,27.754,19.755,27.754,37.039v7.843h-7.843
			c-17.355,0-32.313-11.684-37.039-27.754C390.203,102.959,396.396,96.766,399.593,89.028z M313.834,28.242v-7.843h7.843
			c17.14,0,32.132,11.474,36.964,27.471c-7.861,3.202-14.144,9.487-17.342,17.349C325.245,60.422,313.834,45.579,313.834,28.242z
			 M321.678,133.91h-7.843v-7.843c0-17.499,11.41-32.271,27.541-37.009c3.23,7.795,9.504,14.016,17.331,17.184
			C353.97,122.393,339.057,133.91,321.678,133.91z M359.386,77.043c0-6.116,4.976-11.093,11.093-11.093
			c6.115,0,11.092,4.976,11.092,11.093s-4.976,11.092-11.092,11.092C364.362,88.134,359.386,83.158,359.386,77.043z
			 M297.863,219.403l47.63,47.63h-1.015c-32.612,0-59.143-26.531-59.143-59.143v-15.439h15.439
			c32.612,0,59.143,26.531,59.143,59.143v1.015l-47.629-47.63c-3.983-3.983-10.441-3.983-14.425,0
			C293.88,208.962,293.88,215.42,297.863,219.403z M190.797,20.398h7.843v7.843c0,17.255-11.667,32.248-27.676,37.014
			c-3.166-7.815-9.377-14.079-17.158-17.309C158.591,31.869,173.501,20.398,190.797,20.398z M170.887,89.028
			c16.049,4.741,27.754,19.755,27.754,37.038v7.844h0h-7.843c-17.355,0-32.313-11.683-37.039-27.754
			C161.497,102.959,167.69,96.766,170.887,89.028z M85.128,28.242v-7.843h7.843c17.14,0,32.132,11.474,36.964,27.471
			c-7.861,3.202-14.144,9.487-17.342,17.349C96.539,60.422,85.128,45.579,85.128,28.242z M92.971,133.91h-7.843v-7.843
			c0-17.499,11.41-32.271,27.541-37.009c3.23,7.795,9.504,14.016,17.331,17.184C125.264,122.393,110.35,133.91,92.971,133.91z
			 M130.68,77.043c0-6.116,4.976-11.093,11.093-11.093c6.115,0,11.092,4.976,11.092,11.093s-4.976,11.092-11.092,11.092
			C135.656,88.134,130.68,83.158,130.68,77.043z M69.631,219.403l47.63,47.63h-1.015c-32.611,0-59.143-26.531-59.143-59.143v-15.439
			h15.44c32.612,0,59.143,26.531,59.143,59.143v1.015l-47.63-47.63c-3.984-3.983-10.44-3.983-14.425,0
			C65.648,208.962,65.648,215.42,69.631,219.403z M447.423,478.855c-1.059,7.267-8.378,12.747-17.024,12.747H81.602
			c-8.647,0-15.965-5.48-17.023-12.747l-14.303-98.152h411.452L447.423,478.855z M488.495,360.304H23.506V335.77h464.99V360.304z"/>
	</g>
</g>
<g>
	<g>
		<path d="M442.371,204.979c-3.984-3.982-10.44-3.982-14.425,0l-2.606,2.606c-3.983,3.983-3.983,10.441,0,14.425
			c1.992,1.991,4.602,2.987,7.213,2.987c2.611,0,5.22-0.996,7.212-2.987l2.606-2.606
			C446.353,215.42,446.353,208.962,442.371,204.979z"/>
	</g>
</g>
<g>
</g>
<g>
</g>
<g>
</g>
<g>
</g>
<g>
</g>
<g>
</g>
<g>
</g>
<g>
</g>
<g>
</g>
<g>
</g>
<g>
</g>
<g>
</g>
<g>
</g>
<g>
</g>
<g>
</g>
</svg>
